<?xml version="1.0" encoding="UTF-8" standalone="no"?>
<!-- Created with Inkscape (http://www.inkscape.org/) -->

<svg
   xmlns:dc="http://purl.org/dc/elements/1.1/"
   xmlns:cc="http://creativecommons.org/ns#"
   xmlns:rdf="http://www.w3.org/1999/02/22-rdf-syntax-ns#"
   xmlns:svg="http://www.w3.org/2000/svg"
   xmlns="http://www.w3.org/2000/svg"
   xmlns:xlink="http://www.w3.org/1999/xlink"
   xmlns:sodipodi="http://sodipodi.sourceforge.net/DTD/sodipodi-0.dtd"
   xmlns:inkscape="http://www.inkscape.org/namespaces/inkscape"
   width="64"
   height="64"
   id="svg2816"
   version="1.1"
   inkscape:version="0.47pre4 r22446"
   sodipodi:docname="icon.svg"
   inkscape:export-xdpi="67.5"
   inkscape:export-ydpi="67.5">
  <defs
     id="defs2818">
    <linearGradient
       inkscape:collect="always"
       id="linearGradient3917">
      <stop
         style="stop-color:#ffffff;stop-opacity:1;"
         offset="0"
         id="stop3919" />
      <stop
         style="stop-color:#ffffff;stop-opacity:0;"
         offset="1"
         id="stop3921" />
    </linearGradient>
    <linearGradient
       inkscape:collect="always"
       xlink:href="#linearGradient3917"
       id="linearGradient3923"
       x1="68.097809"
       y1="27.384615"
       x2="68.097809"
       y2="-33.53846"
       gradientUnits="userSpaceOnUse" />
    <filter
       inkscape:collect="always"
       id="filter4007"
       color-interpolation-filters="sRGB">
      <feGaussianBlur
         inkscape:collect="always"
         stdDeviation="1.0978125"
         id="feGaussianBlur4009" />
    </filter>
    <filter
       inkscape:collect="always"
       id="filter4049"
       color-interpolation-filters="sRGB">
      <feGaussianBlur
         inkscape:collect="always"
         stdDeviation="0.964"
         id="feGaussianBlur4051" />
    </filter>
    <filter
       inkscape:collect="always"
       id="filter4091"
       color-interpolation-filters="sRGB">
      <feGaussianBlur
         inkscape:collect="always"
         stdDeviation="0.90666667"
         id="feGaussianBlur4093" />
    </filter>
    <filter
       inkscape:collect="always"
       id="filter4159"
       color-interpolation-filters="sRGB">
      <feGaussianBlur
         inkscape:collect="always"
         stdDeviation="1.6173483"
         id="feGaussianBlur4161" />
    </filter>
  </defs>
  <sodipodi:namedview
     id="base"
     pagecolor="#ffffff"
     bordercolor="#666666"
     borderopacity="1.0"
     inkscape:pageopacity="0.0"
     inkscape:pageshadow="2"
     inkscape:zoom="7.919596"
     inkscape:cx="37.982941"
     inkscape:cy="33.010248"
     inkscape:current-layer="layer1"
     showgrid="false"
     inkscape:document-units="px"
     inkscape:grid-bbox="true"
     inkscape:window-width="1024"
     inkscape:window-height="691"
     inkscape:window-x="0"
     inkscape:window-y="27"
     inkscape:window-maximized="1">
    <inkscape:grid
       type="xygrid"
       id="grid2826"
       empspacing="2"
       visible="true"
       enabled="true"
       snapvisiblegridlinesonly="true" />
  </sodipodi:namedview>
  <metadata
     id="metadata2821">
    <rdf:RDF>
      <cc:Work
         rdf:about="">
        <dc:format>image/svg+xml</dc:format>
        <dc:type
           rdf:resource="http://purl.org/dc/dcmitype/StillImage" />
        <dc:title />
      </cc:Work>
    </rdf:RDF>
  </metadata>
  <g
     inkscape:groupmode="layer"
     id="layer3"
     inkscape:label="Layer 3"
     style="display:inline"
     sodipodi:insensitive="true">
    <path
       sodipodi:type="arc"
       style="opacity:0.6;fill:#9e9e9e;fill-opacity:1;stroke:none;filter:url(#filter4159)"
       id="path4133"
       sodipodi:cx="31.996582"
       sodipodi:cy="31.91503"
       sodipodi:rx="27.996582"
       sodipodi:ry="25.91503"
       d="m 59.993164,31.91503 a 27.996582,25.91503 0 1 1 -55.993164,0 27.996582,25.91503 0 1 1 55.993164,0 z"
       transform="translate(0,4)" />
    <path
       style="fill:#cfcfcf;fill-opacity:1;stroke:#636363;stroke-width:4;stroke-linecap:round;stroke-linejoin:round;stroke-miterlimit:4;stroke-opacity:1;stroke-dasharray:none;display:inline;filter:url(#filter4007)"
       d="M 27.46875,4.375 C 16.137831,6.2240692 7.0919098,14.877983 4.65625,26 6.0702212,24.80186 7.9236145,24.0625 9.9375,24.0625 c 1.966163,0 3.756138,0.696055 5.15625,1.84375 1.795947,-4.956084 5.6886,-8.905202 10.625,-10.75 C 24.638993,13.880818 24,12.284406 24,10.53125 24,7.9780461 25.381545,5.7252079 27.46875,4.375 z m 9.0625,0 C 38.618455,5.7252079 40,7.9780461 40,10.53125 c 0,1.753156 -0.638993,3.349568 -1.71875,4.625 4.905476,1.833241 8.782657,5.743931 10.59375,10.65625 1.381938,-1.088451 3.153381,-1.75 5.0625,-1.75 2.10933,0 3.999573,0.823644 5.4375,2.125 C 57.000406,14.975401 47.925641,6.2344272 36.53125,4.375 z m 22.875,33.4375 c -1.439743,1.310343 -3.351239,2.125 -5.46875,2.125 -1.909119,0 -3.680562,-0.661549 -5.0625,-1.75 -1.827888,4.974937 -5.771148,8.939964 -10.75,10.75 C 39.293374,50.312831 40,52.068636 40,54 c 0,2.080033 -0.822297,3.96074 -2.15625,5.375 10.788202,-2.2893 19.288783,-10.769294 21.5625,-21.5625 z M 4.625,38 C 6.9500343,48.6449 15.351018,57.020878 26,59.34375 24.675196,57.931274 23.84375,56.071997 23.84375,54 c 0,-1.962615 0.734979,-3.740458 1.9375,-5.125 -4.96446,-1.833331 -8.914371,-5.773825 -10.71875,-10.75 -1.395219,1.131057 -3.174744,1.8125 -5.125,1.8125 C 7.9154335,39.9375 6.0412223,39.206867 4.625,38 z"
       id="path3788-8" />
    <path
       style="fill:#6ae473;fill-opacity:1;stroke:#359332;stroke-width:4;stroke-linecap:round;stroke-linejoin:round;stroke-miterlimit:4;stroke-opacity:1;stroke-dasharray:none"
       d="M 27.46875,4.375 C 16.137831,6.2240692 7.0919098,14.877983 4.65625,26 6.0702212,24.80186 7.9236145,24.0625 9.9375,24.0625 c 1.966163,0 3.756138,0.696055 5.15625,1.84375 1.795947,-4.956084 5.6886,-8.905202 10.625,-10.75 C 24.638993,13.880818 24,12.284406 24,10.53125 24,7.9780461 25.381545,5.7252079 27.46875,4.375 z m 9.0625,0 C 38.618455,5.7252079 40,7.9780461 40,10.53125 c 0,1.753156 -0.638993,3.349568 -1.71875,4.625 4.905476,1.833241 8.782657,5.743931 10.59375,10.65625 1.381938,-1.088451 3.153381,-1.75 5.0625,-1.75 2.10933,0 3.999573,0.823644 5.4375,2.125 C 57.000406,14.975401 47.925641,6.2344272 36.53125,4.375 z m 22.875,33.4375 c -1.439743,1.310343 -3.351239,2.125 -5.46875,2.125 -1.909119,0 -3.680562,-0.661549 -5.0625,-1.75 -1.827888,4.974937 -5.771148,8.939964 -10.75,10.75 C 39.293374,50.312831 40,52.068636 40,54 c 0,2.080033 -0.822297,3.96074 -2.15625,5.375 10.788202,-2.2893 19.288783,-10.769294 21.5625,-21.5625 z M 4.625,38 C 6.9500343,48.6449 15.351018,57.020878 26,59.34375 24.675196,57.931274 23.84375,56.071997 23.84375,54 c 0,-1.962615 0.734979,-3.740458 1.9375,-5.125 -4.96446,-1.833331 -8.914371,-5.773825 -10.71875,-10.75 -1.395219,1.131057 -3.174744,1.8125 -5.125,1.8125 C 7.9154335,39.9375 6.0412223,39.206867 4.625,38 z"
       id="path3788" />
  </g>
  <g
     inkscape:groupmode="layer"
     id="layer2"
     inkscape:label="Layer 2"
     style="display:inline"
     sodipodi:insensitive="true">
    <path
       style="fill:none;stroke:#636363;stroke-width:3.49602938;stroke-linecap:round;stroke-linejoin:round;stroke-miterlimit:4;stroke-opacity:1;stroke-dasharray:none;display:inline;filter:url(#filter4091)"
       d="m 4,37.333333 11,0 7.333333,-20 7.333334,33.333334 L 33.333333,24 48,24 l 0,-1.666667 -16.5,0 -1.833333,15 L 22.333333,3.9999997 11.333333,34 4,34 4,37.333333 z"
       id="path2849-5-24-9"
       sodipodi:nodetypes="ccccccccccccc" />
    <path
       style="fill:none;stroke:#9a1841;stroke-width:3.49602938;stroke-linecap:round;stroke-linejoin:round;stroke-miterlimit:4;stroke-opacity:1;stroke-dasharray:none"
       d="m 4,37.333333 11,0 7.333333,-20 7.333334,33.333334 L 33.333333,24 48,24 l 0,-1.666667 -16.5,0 -1.833333,15 L 22.333333,4 l -11,30 L 4,34 4,37.333333 z"
       id="path2849-5-24"
       sodipodi:nodetypes="ccccccccccccc" />
    <path
       style="fill:#ef4773;fill-opacity:1;stroke:none"
       d="m 4,37.333333 11,0 7.333333,-20 7.333334,33.333334 L 33.333333,24 48,24 l 0,-1.666667 -16.5,0 -1.833333,15 L 22.333333,4 l -11,30 L 4,34 4,37.333333 z"
       id="path2849-2"
       sodipodi:nodetypes="ccccccccccccc" />
  </g>
  <g
     id="layer1"
     inkscape:label="Layer 1"
     inkscape:groupmode="layer"
     style="display:inline">
    <path
       style="fill:none;stroke:#636363;stroke-width:3.71483517;stroke-linecap:round;stroke-linejoin:round;stroke-miterlimit:4;stroke-opacity:1;stroke-dasharray:none;display:inline;filter:url(#filter4049)"
       d="m 14,45.6 11.5,0 L 33.166667,24 40.833333,60 44.666667,31.2 60,31.2 60,29.4 42.75,29.4 40.833333,45.6 33.166667,9.5999996 21.666666,42 14,42 l 0,3.6 z"
       id="path2849-5-9"
       sodipodi:nodetypes="ccccccccccccc" />
    <path
       style="fill:none;stroke:#252083;stroke-width:3.71483517;stroke-linecap:round;stroke-linejoin:round;stroke-miterlimit:4;stroke-opacity:1;stroke-dasharray:none"
       d="m 14,45.6 11.5,0 L 33.166667,24 40.833333,60 44.666667,31.2 60,31.2 60,29.4 42.75,29.4 40.833333,45.6 33.166667,9.6 21.666666,42 14,42 l 0,3.6 z"
       id="path2849-5"
       sodipodi:nodetypes="ccccccccccccc" />
    <path
       style="fill:#6f4bf1;fill-opacity:1;stroke:none"
       d="m 14,45.6 11.5,0 L 33.166667,24 40.833333,60 44.666667,31.2 60,31.2 60,29.4 42.75,29.4 40.833333,45.6 33.166667,9.6 21.666666,42 14,42 l 0,3.6 z"
       id="path2849"
       sodipodi:nodetypes="ccccccccccccc" />
    <path
       sodipodi:type="arc"
       style="opacity:0.6;fill:url(#linearGradient3923);fill-opacity:1;stroke:none"
       id="path3915"
       sodipodi:cx="69"
       sodipodi:cy="2"
       sodipodi:rx="36.999512"
       sodipodi:ry="22"
       d="M 101.20235,-8.8337277 A 36.999512,22 0 1 1 36.938607,-8.9805371"
       transform="matrix(1.120383,0,0,1.1818182,-45.385388,7.6363636)"
       sodipodi:start="5.7682918"
       sodipodi:end="9.9473555"
       sodipodi:open="true" />
  </g>
</svg>
